name C:/MyDriveSym/Projects/mobilecap/Data\Session20210910_0002\mocap\ForceDataProcessed\walking4_forces.mot
datacolumns 19
datarows 14
range 0.34450000 0.35100000
endheader 
time	R_ground_force_vx	R_ground_force_vy	R_ground_force_vz	R_ground_force_px	R_ground_force_py	R_ground_force_pz	R_ground_torque_x	R_ground_torque_y	R_ground_torque_z	L_ground_force_vx	L_ground_force_vy	L_ground_force_vz	L_ground_force_px	L_ground_force_py	L_ground_force_pz	L_ground_torque_x	L_ground_torque_y	L_ground_torque_z	
          0.34450000	        -35.64728100	        639.34749200	        -30.98896600	          0.24791800	          0.00600000	         -0.18173000	          0.00000000	         -3.02936900	          0.00000000	          0.00000000	          0.00000000	          0.00000000	          0.65880800	          0.00000000	         -0.30847400	          0.00000000	          0.00000000	          0.00000000	
          0.34500000	        -35.38232900	        639.22358600	        -30.97181200	          0.24807000	          0.00600000	         -0.18171300	          0.00000000	         -3.04238500	          0.00000000	          0.00000000	          0.00000000	          0.00000000	          0.65880800	          0.00000000	         -0.30847400	          0.00000000	          0.00000000	          0.00000000	
          0.34550000	        -35.11687600	        639.11150700	        -30.95573700	          0.24822100	          0.00600000	         -0.18169700	          0.00000000	         -3.05543100	          0.00000000	          0.00000000	          0.00000000	          0.00000000	          0.65880800	          0.00000000	         -0.30847400	          0.00000000	          0.00000000	          0.00000000	
          0.34600000	        -34.85090500	        639.01126600	        -30.94074400	          0.24837100	          0.00600000	         -0.18168000	          0.00000000	         -3.06850800	          0.00000000	          0.00000000	          0.00000000	          0.00000000	          0.65880800	          0.00000000	         -0.30847400	          0.00000000	          0.00000000	          0.00000000	
          0.34650000	        -34.58440000	        638.92287500	        -30.92683600	          0.24852000	          0.00600000	         -0.18166400	          0.00000000	         -3.08161400	          0.00000000	          0.00000000	          0.00000000	          0.00000000	          0.65880800	          0.00000000	         -0.30847400	          0.00000000	          0.00000000	          0.00000000	
          0.34700000	        -34.31734300	        638.84634800	        -30.91401700	          0.24866700	          0.00600000	         -0.18164800	          0.00000000	         -3.09475100	          0.00000000	          0.00000000	          0.00000000	          0.00000000	          0.65880800	          0.00000000	         -0.30847400	          0.00000000	          0.00000000	          0.00000000	
          0.34750000	        -34.04971700	        638.78169400	        -30.90229000	          0.24881300	          0.00600000	         -0.18163200	          0.00000000	         -3.10791700	          0.00000000	          0.00000000	          0.00000000	          0.00000000	          0.65880800	          0.00000000	         -0.30847400	          0.00000000	          0.00000000	          0.00000000	
          0.34800000	        -33.78150400	        638.72892600	        -30.89165900	          0.24895700	          0.00600000	         -0.18161700	          0.00000000	         -3.12111100	          0.00000000	          0.00000000	          0.00000000	          0.00000000	          0.65880800	          0.00000000	         -0.30847400	          0.00000000	          0.00000000	          0.00000000	
          0.34850000	        -33.51268900	        638.68805500	        -30.88212500	          0.24910000	          0.00600000	         -0.18160200	          0.00000000	         -3.13433500	          0.00000000	          0.00000000	          0.00000000	          0.00000000	          0.65880800	          0.00000000	         -0.30847400	          0.00000000	          0.00000000	          0.00000000	
          0.34900000	        -33.24325400	        638.65909200	        -30.87369300	          0.24924200	          0.00600000	         -0.18158700	          0.00000000	         -3.14758700	          0.00000000	          0.00000000	          0.00000000	          0.00000000	          0.65880800	          0.00000000	         -0.30847400	          0.00000000	          0.00000000	          0.00000000	
          0.34950000	        -32.97318300	        638.64204700	        -30.86636600	          0.24938200	          0.00600000	         -0.18157200	          0.00000000	         -3.16086700	          0.00000000	          0.00000000	          0.00000000	          0.00000000	          0.65880800	          0.00000000	         -0.30847400	          0.00000000	          0.00000000	          0.00000000	
          0.35000000	        -32.70245800	        638.63693200	        -30.86014500	          0.24952100	          0.00600000	         -0.18155800	          0.00000000	         -3.17417400	          0.00000000	          0.00000000	          0.00000000	          0.00000000	          0.65880800	          0.00000000	         -0.30847400	          0.00000000	          0.00000000	          0.00000000	
          0.35050000	        -32.43106300	        638.64375600	        -30.85503400	          0.24965900	          0.00600000	         -0.18154300	          0.00000000	         -3.18751000	          0.00000000	          0.00000000	          0.00000000	          0.00000000	          0.65880800	          0.00000000	         -0.30847400	          0.00000000	          0.00000000	          0.00000000	
          0.35100000	        -32.15898000	        638.66253000	        -30.85103500	          0.24979500	          0.00600000	         -0.18152900	          0.00000000	         -3.20087200	          0.00000000	          0.00000000	          0.00000000	          0.00000000	          0.65880800	          0.00000000	         -0.30847400	          0.00000000	          0.00000000	          0.00000000	
